# xmcd
#
# Track frame offsets: 
#        150
#        14855
#        27463
#        35678
#        47216
#        59016
#        73606
#        85090
#        98279
#        110260
#        120321
#        133351
#
# Disc length: 1933 seconds
#
# Revision: 1
# Processed by: cddbd v1.5.2PL0 Copyright (c) Steve Scherf et al.
# Submitted via: ExactAudioCopyFreeDBPlugin 1.0
#
DISCID=a7078b0c
DTITLE=Various Artist - The Greatest Soul Music of Hits of All Time [
DTITLE=Rhino Custom Products]
DYEAR=2006
DGENRE=Soul
TTITLE0=Otis Redding - I've Been Loving You Too Long (To Stop Now)
TTITLE1=Aretha Franklin - Chain of Fools
TTITLE2=Ruth Brown - This Little Girl's Gone Rockin'
TTITLE3=Wilson Pickett - In the Midnight Hour
TTITLE4=Sam and Dave - Hold On I'm Comin'
TTITLE5=Archie Bell and the Drells - Tighten Up
TTITLE6=Clarence Carter - Slip Away
TTITLE7=Ben E. King - Spanish Harlem
TTITLE8=The Mar-Keys - Last Night
TTITLE9=The Drifters - There Goes My Baby
TTITLE10=J. J. Jackson - But It's Alright
TTITLE11=Rufus Thomas - Walkin' the Dog
EXTD=
EXTT0=
EXTT1=
EXTT2=
EXTT3=
EXTT4=
EXTT5=
EXTT6=
EXTT7=
EXTT8=
EXTT9=
EXTT10=
EXTT11=
PLAYORDER=
